<mxfile host="Electron" modified="2024-05-06T14:50:31.571Z" agent="Mozilla/5.0 (Windows NT 10.0; Win64; x64) AppleWebKit/537.36 (KHTML, like Gecko) draw.io/21.5.1 Chrome/112.0.5615.204 Electron/24.6.0 Safari/537.36" etag="IhVtO0xKeYPavtqt8cYs" version="21.5.1" type="device">
  <diagram name="Page-1" id="Qmekc7czTm-IqdkDpled">
    <mxGraphModel dx="2402" dy="1482" grid="0" gridSize="10" guides="1" tooltips="1" connect="1" arrows="1" fold="1" page="0" pageScale="1" pageWidth="850" pageHeight="1100" math="0" shadow="0">
      <root>
        <mxCell id="0" />
        <mxCell id="1" parent="0" />
        <mxCell id="SH4cEdGhVvLtYH0w7jvw-21" value="" style="rounded=0;whiteSpace=wrap;html=1;fontSize=16;" parent="1" vertex="1">
          <mxGeometry x="220" y="99" width="417" height="68" as="geometry" />
        </mxCell>
        <mxCell id="SH4cEdGhVvLtYH0w7jvw-23" style="edgeStyle=none;curved=1;rounded=0;orthogonalLoop=1;jettySize=auto;html=1;exitX=1;exitY=0.5;exitDx=0;exitDy=0;fontSize=12;startSize=8;endSize=8;" parent="1" source="SH4cEdGhVvLtYH0w7jvw-20" target="SH4cEdGhVvLtYH0w7jvw-18" edge="1">
          <mxGeometry relative="1" as="geometry" />
        </mxCell>
        <mxCell id="SH4cEdGhVvLtYH0w7jvw-26" value="Input" style="edgeLabel;html=1;align=center;verticalAlign=middle;resizable=0;points=[];fontSize=16;" parent="SH4cEdGhVvLtYH0w7jvw-23" vertex="1" connectable="0">
          <mxGeometry x="-0.333" y="-2" relative="1" as="geometry">
            <mxPoint x="6" y="-19" as="offset" />
          </mxGeometry>
        </mxCell>
        <mxCell id="SH4cEdGhVvLtYH0w7jvw-20" value="" style="rounded=0;whiteSpace=wrap;html=1;fontSize=16;" parent="1" vertex="1">
          <mxGeometry x="-465" y="99" width="417" height="68" as="geometry" />
        </mxCell>
        <mxCell id="SH4cEdGhVvLtYH0w7jvw-10" value="&lt;u style=&quot;&quot;&gt;Text-Based Pattern Matching Example&lt;br&gt;&lt;b&gt;&lt;br&gt;Task&lt;/b&gt;&lt;/u&gt;: Identify the pattern &quot;Omega, Delta, Theta&quot; in that order." style="rounded=0;whiteSpace=wrap;html=1;fontSize=16;fillColor=#f5f5f5;fontColor=#333333;strokeColor=#666666;" parent="1" vertex="1">
          <mxGeometry x="-115" y="-85" width="398" height="79" as="geometry" />
        </mxCell>
        <mxCell id="SH4cEdGhVvLtYH0w7jvw-17" value="Delta, Alpha, Beta, Omega, Delta, Theta, Theta, Zeta, Omega, Delta, Theta, Alpha" style="text;html=1;strokeColor=none;fillColor=none;align=center;verticalAlign=middle;whiteSpace=wrap;rounded=0;fontSize=16;" parent="1" vertex="1">
          <mxGeometry x="-437.25" y="107.98000000000003" width="361.5" height="52" as="geometry" />
        </mxCell>
        <mxCell id="SH4cEdGhVvLtYH0w7jvw-18" value="" style="sketch=0;outlineConnect=0;gradientColor=none;fontColor=#545B64;strokeColor=none;fillColor=#879196;dashed=0;verticalLabelPosition=bottom;verticalAlign=top;align=center;html=1;fontSize=12;fontStyle=0;aspect=fixed;shape=mxgraph.aws4.illustration_desktop;pointerEvents=1" parent="1" vertex="1">
          <mxGeometry x="12.77" y="69.16000000000001" width="142.45" height="129.63" as="geometry" />
        </mxCell>
        <mxCell id="SH4cEdGhVvLtYH0w7jvw-24" value="" style="endArrow=classic;html=1;rounded=0;endFill=1;fontSize=12;startSize=8;endSize=8;curved=1;entryX=0;entryY=0.5;entryDx=0;entryDy=0;" parent="1" source="SH4cEdGhVvLtYH0w7jvw-18" target="SH4cEdGhVvLtYH0w7jvw-21" edge="1">
          <mxGeometry width="50" height="50" relative="1" as="geometry">
            <mxPoint x="160.5" y="133.74" as="sourcePoint" />
            <mxPoint x="200.5" y="133.74" as="targetPoint" />
            <Array as="points" />
          </mxGeometry>
        </mxCell>
        <mxCell id="SH4cEdGhVvLtYH0w7jvw-25" value="Output" style="edgeLabel;html=1;align=center;verticalAlign=middle;resizable=0;points=[];fontSize=16;" parent="SH4cEdGhVvLtYH0w7jvw-24" vertex="1" connectable="0">
          <mxGeometry x="-0.0845" y="2" relative="1" as="geometry">
            <mxPoint x="-2" y="-14" as="offset" />
          </mxGeometry>
        </mxCell>
        <mxCell id="SH4cEdGhVvLtYH0w7jvw-27" value="" style="endArrow=open;html=1;rounded=0;endFill=0;fontSize=12;startSize=8;endSize=8;curved=1;exitX=0.5;exitY=1;exitDx=0;exitDy=0;" parent="1" source="SH4cEdGhVvLtYH0w7jvw-10" target="SH4cEdGhVvLtYH0w7jvw-18" edge="1">
          <mxGeometry width="50" height="50" relative="1" as="geometry">
            <mxPoint x="11" y="186" as="sourcePoint" />
            <mxPoint x="51" y="186" as="targetPoint" />
            <Array as="points" />
          </mxGeometry>
        </mxCell>
        <mxCell id="SH4cEdGhVvLtYH0w7jvw-28" value="Input" style="edgeLabel;html=1;align=center;verticalAlign=middle;resizable=0;points=[];fontSize=16;" parent="1" vertex="1" connectable="0">
          <mxGeometry x="103.9956385150203" y="29.000692639257423" as="geometry">
            <mxPoint x="3" as="offset" />
          </mxGeometry>
        </mxCell>
        <mxCell id="VfNVBTiQvLoInOce1Wyu-1" value="Delta, Alpha, Beta, &lt;b&gt;&lt;font color=&quot;#6a00ff&quot;&gt;Omega, Delta, Theta&lt;/font&gt;&lt;/b&gt;, Theta, Zeta, &lt;b&gt;&lt;font color=&quot;#6a00ff&quot;&gt;Omega, Delta, Theta&lt;/font&gt;&lt;/b&gt;, Alpha" style="text;html=1;strokeColor=none;fillColor=none;align=center;verticalAlign=middle;whiteSpace=wrap;rounded=0;fontSize=16;" parent="1" vertex="1">
          <mxGeometry x="247.75" y="107.98000000000003" width="361.5" height="52" as="geometry" />
        </mxCell>
      </root>
    </mxGraphModel>
  </diagram>
</mxfile>
